<svg width="127" height="40" viewBox="0 0 127 40" fill="none" xmlns="http://www.w3.org/2000/svg">
<path d="M48.2031 33.5529V5.48389H55.8105C57.8519 5.48389 59.3351 5.9836 60.2601 6.98303C61.1957 7.97183 61.6635 9.60919 61.6635 11.8951V13.1231C61.6635 14.4415 61.4243 15.5101 60.9458 16.3287C60.478 17.1474 59.7603 17.6844 58.7928 17.9395C60.058 18.2585 60.9033 19.0081 61.3286 20.1882C61.7645 21.3578 61.9825 22.7878 61.9825 24.4783C61.9825 26.2965 61.8124 27.886 61.4721 29.2469C61.1319 30.6078 60.5152 31.6657 59.6221 32.4206C58.729 33.1755 57.4585 33.5529 55.8105 33.5529H48.2031ZM53.6893 16.0576H54.8376C55.3586 16.0576 55.6935 15.8556 55.8424 15.4516C55.9912 15.0476 56.0656 14.5638 56.0656 14.0003V11.1774C56.0656 10.2737 55.6669 9.82183 54.8695 9.82183H53.6893V16.0576ZM54.2475 28.609C55.7042 28.609 56.4325 27.9179 56.4325 26.5357V23.027C56.4325 22.2296 56.3102 21.6023 56.0656 21.1451C55.8317 20.6773 55.3852 20.4434 54.726 20.4434H53.6893V28.5771C53.9233 28.5983 54.1093 28.609 54.2475 28.609Z" fill="#151515"/>
<path d="M63.067 33.5529L65.7782 5.48389H75.2993L77.9627 33.5529H72.6519L72.2532 29.0236H68.8722L68.5213 33.5529H63.067ZM69.2709 24.5421H71.8226L70.5946 10.2684H70.3394L69.2709 24.5421Z" fill="#151515"/>
<path d="M79.6851 33.5529V5.48389H85.2989V28.7684H91.0722V33.5529H79.6851Z" fill="#151515"/>
<path d="M92.6671 33.5529V5.48389H98.2809V28.7684H104.054V33.5529H92.6671Z" fill="#151515"/>
<path d="M105.394 33.5529V5.48389H110.816V33.5529H105.394Z" fill="#151515"/>
<path d="M113.049 33.5529V5.48389H118.822L121.406 18.9283V5.48389H126.828V33.5529H121.342L118.535 19.5184V33.5529H113.049Z" fill="#151515"/>
<path d="M20.9313 38.4373C10.6188 38.7866 1.98284 30.7116 1.6344 20.403C1.28596 10.0944 9.36018 1.45452 19.6696 1.10609C29.9789 0.757649 38.618 8.82796 38.9664 19.1405C39.3149 29.453 31.2407 38.0866 20.9313 38.4373Z" fill="#F0F3F7"/>
<g opacity="0.7">
<path d="M33.8281 7.03125C33.8281 7.03125 30.3906 12.0312 30.3906 20C30.3906 27.9688 33.8281 32.7344 33.8281 32.7344C33.8281 32.7344 28.9844 30.3906 28.9844 19.9219C28.9844 9.45312 33.8281 7.03125 33.8281 7.03125Z" fill="white"/>
</g>
<g opacity="0.7">
<path d="M6.64062 7.03125C6.64062 7.03125 10.0781 12.0312 10.0781 20C10.0781 27.9688 6.64062 32.7344 6.64062 32.7344C6.64062 32.7344 11.4844 30.3906 11.4844 19.9219C11.4844 9.45312 6.64062 7.03125 6.64062 7.03125Z" fill="white"/>
</g>
<g opacity="0.1">
<path d="M7.03125 6.64062C7.03125 6.64062 11.4844 10.7812 11.4844 20C11.4844 28.9062 6.64062 32.8906 6.64062 32.8906C6.64062 32.8906 12.8906 31.0938 12.8906 19.9219C12.8906 9.45312 7.03125 6.64062 7.03125 6.64062Z" fill="#3F456B"/>
</g>
<g opacity="0.1">
<path d="M33.5938 6.64062C33.5938 6.64062 29.1406 10.7812 29.1406 20C29.1406 28.9062 33.9844 32.8906 33.9844 32.8906C33.9844 32.8906 27.7344 31.0938 27.7344 19.9219C27.7344 9.45312 33.5938 6.64062 33.5938 6.64062Z" fill="#3F456B"/>
</g>
<g opacity="0.15">
<path d="M38.9297 19.167C39.2812 29.5459 30.5023 38.5936 20.118 38.5936C10.2742 38.5936 1.69453 30.8154 1.34375 20.4357C1.34375 20.4357 3.32109 33.7123 19.8836 33.7123C34.4141 33.7139 38.9297 19.167 38.9297 19.167Z" fill="#3F456B"/>
</g>
<g opacity="0.5">
<path d="M31.368 12.1092C31.4421 14.3326 30.8553 16.5281 29.6818 18.4181C28.5083 20.3082 26.8007 21.8078 24.7751 22.7275C22.7494 23.6472 20.4965 23.9457 18.3012 23.5852C16.1059 23.2247 14.0668 22.2214 12.4416 20.7022C10.8164 19.1829 9.67818 17.2159 9.17075 15.0499C8.66333 12.8838 8.8095 10.616 9.5908 8.53297C10.3721 6.44998 11.7534 4.6454 13.5602 3.34736C15.3669 2.04932 17.518 1.3161 19.7414 1.2404C21.2186 1.19011 22.6912 1.4314 24.0751 1.95048C25.459 2.46956 26.7271 3.25626 27.8068 4.26561C28.8866 5.27497 29.7568 6.48721 30.3678 7.83304C30.9789 9.17887 31.3187 10.6319 31.368 12.1092Z" fill="white"/>
</g>
<g opacity="0.5">
<path d="M23.007 6.67879C23.05 7.9366 21.7828 8.9991 20.1774 9.05379C18.5719 9.10848 17.2352 8.1327 17.193 6.87489C17.1508 5.61707 18.4172 4.55457 20.0234 4.50067C21.6297 4.44676 22.9688 5.42176 23.007 6.67879Z" fill="white"/>
</g>
<path d="M6.63439 33.039C6.55077 33.0394 6.46923 33.0129 6.40179 32.9635C6.33434 32.914 6.28453 32.8443 6.25969 32.7644C6.23486 32.6846 6.2363 32.5989 6.26381 32.5199C6.29132 32.4409 6.34344 32.3729 6.41251 32.3257C6.42345 32.3187 7.59298 31.4945 8.74689 29.546C9.81407 27.7437 11.0906 24.5828 11.0906 19.7578C11.0906 17.0945 10.7086 13.2421 8.88751 10.0148C7.80236 8.09057 6.70001 7.29057 6.69142 7.28042C6.60962 7.21942 6.55495 7.12883 6.53908 7.02804C6.52321 6.92724 6.54741 6.82424 6.6065 6.74105C6.6656 6.65787 6.7549 6.60111 6.8553 6.58292C6.9557 6.56473 7.05924 6.58654 7.14376 6.6437C7.19298 6.67807 8.36876 7.52339 9.53907 9.57807C10.6031 11.446 11.8719 14.7281 11.8719 19.7562C11.8719 24.7843 10.525 28.0992 9.39454 29.9906C8.15001 32.0679 6.90704 32.9343 6.8547 32.9687C6.79004 33.0138 6.71324 33.0383 6.63439 33.039Z" fill="#E95A6B"/>
<path d="M33.5399 33.1169C33.4595 33.1169 33.3811 33.0918 33.3156 33.0451C33.2656 33.0099 32.0899 32.1646 30.9195 30.1107C29.8555 28.2427 28.5867 24.9607 28.5867 19.9318C28.5867 14.9029 29.9336 11.5896 31.0641 9.69742C32.3047 7.62242 33.5477 6.75601 33.6 6.71851C33.6422 6.68788 33.6901 6.66602 33.7409 6.6542C33.7917 6.64239 33.8444 6.64086 33.8957 6.64971C33.9471 6.65857 33.9962 6.67762 34.0401 6.70575C34.0841 6.73388 34.1219 6.77052 34.1514 6.8135C34.1809 6.85648 34.2016 6.90494 34.2121 6.95602C34.2226 7.0071 34.2227 7.05977 34.2125 7.11091C34.2024 7.16206 34.182 7.21065 34.1528 7.25381C34.1235 7.29698 34.0859 7.33385 34.0422 7.36226C34.0313 7.37007 32.8617 8.19429 31.7078 10.1427C30.6406 11.9451 29.368 15.106 29.368 19.9302C29.368 22.5935 29.75 26.4459 31.5711 29.674C32.6563 31.5982 33.7586 32.3982 33.7672 32.4084C33.8349 32.4563 33.8856 32.5247 33.9119 32.6034C33.9382 32.6822 33.9387 32.7673 33.9134 32.8463C33.8881 32.9254 33.8382 32.9943 33.771 33.0431C33.7038 33.0919 33.6229 33.1181 33.5399 33.1177V33.1169Z" fill="#E95A6B"/>
<path d="M20.2469 39.0623C16.5231 39.0589 12.8814 37.9679 9.76918 35.9232C6.65696 33.8786 4.20975 30.9694 2.72819 27.553C1.24663 24.1367 0.79526 20.362 1.42952 16.6926C2.06378 13.0232 3.75606 9.61905 6.29844 6.89825C9.75972 3.19464 14.5505 1.01772 19.6168 0.846372C22.1254 0.76153 24.6262 1.17162 26.9763 2.05324C29.3264 2.93485 31.4798 4.27072 33.3137 5.98457C35.1475 7.69843 36.6258 9.7567 37.6642 12.0419C38.7026 14.327 39.2807 16.7944 39.3655 19.303C39.4504 21.8116 39.0403 24.3123 38.1587 26.6624C37.2771 29.0125 35.9412 31.166 34.2273 32.9998C32.518 34.8393 30.4608 36.3214 28.1747 37.3603C25.8887 38.3992 23.4192 38.9742 20.9094 39.0522C20.6885 39.0589 20.4677 39.0623 20.2469 39.0623ZM20.8828 38.2701L20.8961 38.6607L20.8828 38.2701C24.5073 38.1483 28.0142 36.9543 30.9599 34.839C33.9057 32.7237 36.1578 29.7822 37.4314 26.3867C38.7051 22.9912 38.943 19.2942 38.1151 15.7635C37.2873 12.2327 35.4307 9.0268 32.7805 6.55137C31.0213 4.90754 28.9556 3.62629 26.7013 2.78079C24.447 1.93528 22.0482 1.54208 19.642 1.62362C17.2357 1.70516 14.869 2.25985 12.6771 3.25603C10.4852 4.2522 8.51102 5.67035 6.86719 7.4295C3.54732 10.9823 1.77476 15.7083 1.93944 20.568C2.10412 25.4277 4.19255 30.0229 7.74532 33.3428C9.50034 34.9923 11.5652 36.2772 13.8203 37.1232C16.0754 37.9691 18.4759 38.3592 20.8828 38.2709V38.2701Z" fill="#3F456B"/>
<path d="M13.1961 20.1304H9.83673C9.73313 20.1304 9.63377 20.0892 9.56052 20.016C9.48726 19.9427 9.44611 19.8433 9.44611 19.7397C9.44611 19.6361 9.48726 19.5368 9.56052 19.4635C9.63377 19.3903 9.73313 19.3491 9.83673 19.3491H13.1961C13.2997 19.3491 13.3991 19.3903 13.4723 19.4635C13.5456 19.5368 13.5867 19.6361 13.5867 19.7397C13.5867 19.8433 13.5456 19.9427 13.4723 20.016C13.3991 20.0892 13.2997 20.1304 13.1961 20.1304Z" fill="#3F456B"/>
<path d="M9.61722 17.6343C9.51937 17.6341 9.42518 17.5971 9.35329 17.5307C9.2814 17.4643 9.23704 17.3734 9.22899 17.2758C9.22093 17.1783 9.24977 17.0813 9.3098 17.0041C9.36983 16.9268 9.45668 16.8749 9.55316 16.8585L12.8813 16.2999C12.9322 16.2905 12.9846 16.2914 13.0352 16.3024C13.0858 16.3134 13.1338 16.3344 13.1762 16.3641C13.2187 16.3938 13.2548 16.4316 13.2824 16.4755C13.3101 16.5193 13.3288 16.5681 13.3374 16.6192C13.346 16.6703 13.3444 16.7226 13.3325 16.7731C13.3207 16.8235 13.299 16.8711 13.2686 16.9131C13.2383 16.9551 13.1998 16.9906 13.1556 17.0176C13.1114 17.0446 13.0622 17.0625 13.011 17.0703L9.68285 17.6289C9.66118 17.6326 9.63922 17.6344 9.61722 17.6343Z" fill="#3F456B"/>
<path d="M9.17341 15.0287C9.07902 15.0283 8.98796 14.9938 8.91705 14.9315C8.84615 14.8692 8.80021 14.7833 8.78773 14.6897C8.77525 14.5962 8.79707 14.5013 8.84916 14.4225C8.90125 14.3438 8.98008 14.2866 9.07107 14.2615L12.3523 13.3631C12.4523 13.3356 12.5591 13.349 12.6492 13.4003C12.7393 13.4516 12.8053 13.5365 12.8328 13.6365C12.8602 13.7365 12.8469 13.8433 12.7956 13.9334C12.7443 14.0235 12.6593 14.0895 12.5594 14.117L9.2781 15.0146C9.24407 15.0244 9.20881 15.0291 9.17341 15.0287Z" fill="#3F456B"/>
<path d="M8.28908 12.4813C8.19877 12.482 8.11099 12.4514 8.04069 12.3947C7.97038 12.338 7.92189 12.2587 7.90348 12.1703C7.88506 12.0819 7.89784 11.9898 7.93966 11.9098C7.98147 11.8297 8.04973 11.7667 8.13283 11.7313L11.3063 10.3789C11.4016 10.3383 11.5091 10.3372 11.6052 10.3759C11.7013 10.4146 11.7782 10.4899 11.8188 10.5852C11.8594 10.6805 11.8605 10.788 11.8218 10.8841C11.7831 10.9802 11.7078 11.0571 11.6125 11.0977L8.43908 12.45C8.39163 12.4702 8.34065 12.4808 8.28908 12.4813Z" fill="#3F456B"/>
<path d="M7.15001 10.0125C7.06614 10.0126 6.98446 9.98571 6.91705 9.93579C6.84965 9.88587 6.80011 9.81558 6.77575 9.73532C6.75139 9.65506 6.75351 9.56909 6.7818 9.49013C6.81009 9.41117 6.86304 9.34341 6.93283 9.29688L9.88595 7.33125C9.97215 7.27743 10.0759 7.25933 10.1753 7.28077C10.2746 7.30221 10.3616 7.36152 10.418 7.4461C10.4743 7.53068 10.4954 7.63388 10.4769 7.73379C10.4584 7.83371 10.4017 7.92247 10.3188 7.98125L7.36564 9.94688C7.3019 9.98972 7.22682 10.0126 7.15001 10.0125Z" fill="#3F456B"/>
<path d="M12.9469 23.1848C12.9249 23.1845 12.903 23.1827 12.8812 23.1794L9.55312 22.62C9.45228 22.6014 9.36281 22.5439 9.30401 22.4599C9.24521 22.3759 9.2218 22.2721 9.23882 22.171C9.25584 22.0699 9.31194 21.9795 9.395 21.9194C9.47807 21.8593 9.58144 21.8342 9.6828 21.8497L13.0109 22.4083C13.1085 22.4235 13.1966 22.475 13.2577 22.5526C13.3187 22.6302 13.3481 22.728 13.34 22.8263C13.3319 22.9247 13.2868 23.0164 13.2139 23.0829C13.141 23.1494 13.0456 23.1858 12.9469 23.1848Z" fill="#3F456B"/>
<path d="M12.4531 26.1293C12.418 26.1291 12.3831 26.1244 12.3492 26.1152L9.06796 25.2168C9.01706 25.2045 8.96914 25.1822 8.92703 25.1511C8.88493 25.12 8.84951 25.0808 8.82287 25.0357C8.79623 24.9907 8.77892 24.9407 8.77196 24.8888C8.765 24.837 8.76854 24.7842 8.78237 24.7337C8.79619 24.6833 8.82002 24.6361 8.85244 24.595C8.88486 24.5539 8.92521 24.5197 8.97108 24.4945C9.01696 24.4693 9.06744 24.4536 9.11951 24.4483C9.17158 24.443 9.22419 24.4482 9.27421 24.4636L12.5555 25.3613C12.6472 25.3858 12.7268 25.443 12.7795 25.522C12.8322 25.601 12.8543 25.6965 12.8416 25.7906C12.829 25.8847 12.7825 25.971 12.7109 26.0334C12.6392 26.0957 12.5473 26.1298 12.4523 26.1293H12.4531Z" fill="#3F456B"/>
<path d="M11.4625 29.1319C11.4088 29.1324 11.3557 29.1217 11.3063 29.1007L8.13284 27.7476C8.08564 27.7275 8.04287 27.6983 8.00697 27.6616C7.97106 27.625 7.94272 27.5816 7.92357 27.534C7.90442 27.4864 7.89483 27.4355 7.89534 27.3843C7.89586 27.333 7.90648 27.2823 7.92659 27.2351C7.9467 27.1879 7.9759 27.1451 8.01254 27.1092C8.04918 27.0733 8.09253 27.045 8.14012 27.0258C8.18771 27.0067 8.23861 26.9971 8.2899 26.9976C8.3412 26.9981 8.39189 27.0087 8.43909 27.0288L11.6125 28.3819C11.6956 28.4173 11.7639 28.4804 11.8057 28.5605C11.8475 28.6405 11.8603 28.7326 11.8419 28.821C11.8235 28.9094 11.775 28.9887 11.7047 29.0454C11.6344 29.1021 11.5466 29.1327 11.4563 29.1319H11.4625Z" fill="#3F456B"/>
<path d="M10.1023 32.2132C10.0253 32.2135 9.94989 32.1906 9.88593 32.1476L6.9328 30.182C6.8465 30.1246 6.78654 30.0353 6.7661 29.9337C6.74566 29.8321 6.76642 29.7265 6.82382 29.6402C6.88121 29.5539 6.97054 29.4939 7.07214 29.4735C7.17375 29.4531 7.27931 29.4738 7.36561 29.5312L10.3187 31.4968C10.3885 31.5433 10.4414 31.611 10.4697 31.6899C10.498 31.7688 10.5002 31.8547 10.4759 31.9349C10.4517 32.0151 10.4023 32.0854 10.335 32.1354C10.2677 32.1854 10.1861 32.2124 10.1023 32.2125V32.2132Z" fill="#3F456B"/>
<path d="M30.625 20.1562H27.2656C27.162 20.1562 27.0627 20.1151 26.9894 20.0418C26.9162 19.9686 26.875 19.8692 26.875 19.7656C26.875 19.662 26.9162 19.5627 26.9894 19.4894C27.0627 19.4162 27.162 19.375 27.2656 19.375H30.625C30.7286 19.375 30.828 19.4162 30.9012 19.4894C30.9745 19.5627 31.0156 19.662 31.0156 19.7656C31.0156 19.8692 30.9745 19.9686 30.9012 20.0418C30.828 20.1151 30.7286 20.1562 30.625 20.1562Z" fill="#3F456B"/>
<path d="M30.8445 17.6608C30.8233 17.6611 30.8022 17.6595 30.7812 17.6561L27.4531 17.0967C27.3576 17.0734 27.2744 17.0149 27.2202 16.933C27.1659 16.851 27.1445 16.7516 27.1603 16.6546C27.1761 16.5576 27.2278 16.4701 27.3053 16.4095C27.3827 16.349 27.4802 16.3199 27.5781 16.328L30.9062 16.8874C31.0027 16.9037 31.0896 16.9556 31.1496 17.0329C31.2096 17.1102 31.2385 17.2072 31.2304 17.3047C31.2224 17.4022 31.178 17.4931 31.1061 17.5595C31.0342 17.6259 30.94 17.6629 30.8422 17.6632L30.8445 17.6608Z" fill="#3F456B"/>
<path d="M31.2883 15.055C31.2532 15.055 31.2183 15.0502 31.1844 15.041L27.9032 14.1425C27.8523 14.1303 27.8043 14.108 27.7622 14.0769C27.7201 14.0458 27.6847 14.0066 27.6581 13.9615C27.6314 13.9165 27.6141 13.8665 27.6072 13.8146C27.6002 13.7627 27.6037 13.71 27.6176 13.6595C27.6314 13.609 27.6552 13.5618 27.6876 13.5208C27.7201 13.4797 27.7604 13.4455 27.8063 13.4203C27.8522 13.3951 27.9026 13.3794 27.9547 13.3741C28.0068 13.3688 28.0594 13.374 28.1094 13.3894L31.3907 14.2871C31.4823 14.3116 31.5619 14.3687 31.6146 14.4476C31.6673 14.5265 31.6894 14.6219 31.6769 14.716C31.6643 14.8101 31.618 14.8964 31.5465 14.9587C31.475 15.0211 31.3832 15.0554 31.2883 15.055Z" fill="#3F456B"/>
<path d="M32.1727 12.5067C32.119 12.5071 32.0658 12.4964 32.0164 12.4754L28.843 11.1231C28.7477 11.0824 28.6724 11.0056 28.6337 10.9095C28.595 10.8134 28.5961 10.7059 28.6367 10.6106C28.6773 10.5152 28.7542 10.44 28.8503 10.4013C28.9464 10.3626 29.0539 10.3637 29.1492 10.4043L32.3227 11.7567C32.4058 11.792 32.474 11.8551 32.5158 11.9352C32.5577 12.0152 32.5704 12.1073 32.552 12.1957C32.5336 12.2841 32.4851 12.3634 32.4148 12.4201C32.3445 12.4768 32.2567 12.5074 32.1664 12.5067H32.1727Z" fill="#3F456B"/>
<path d="M33.3118 10.0389C33.235 10.0387 33.16 10.0159 33.0961 9.9733L30.143 8.00768C30.1003 7.97926 30.0636 7.9427 30.035 7.90009C30.0064 7.85748 29.9864 7.80966 29.9763 7.75935C29.9662 7.70904 29.9661 7.65723 29.976 7.60687C29.9859 7.55652 30.0056 7.50861 30.034 7.46588C30.0624 7.42315 30.099 7.38643 30.1416 7.35783C30.1842 7.32923 30.232 7.3093 30.2823 7.29918C30.3327 7.28906 30.3845 7.28895 30.4348 7.29885C30.4852 7.30875 30.5331 7.32848 30.5758 7.3569L33.5289 9.32252C33.5991 9.36892 33.6524 9.43672 33.6809 9.51583C33.7094 9.59495 33.7116 9.68115 33.6872 9.76163C33.6628 9.84212 33.6131 9.91257 33.5455 9.96253C33.4778 10.0125 33.3959 10.0393 33.3118 10.0389Z" fill="#3F456B"/>
<path d="M27.5149 23.2105C27.417 23.2102 27.3228 23.1733 27.2509 23.1069C27.179 23.0405 27.1347 22.9495 27.1266 22.852C27.1186 22.7545 27.1474 22.6575 27.2074 22.5802C27.2675 22.503 27.3543 22.451 27.4508 22.4347L30.7813 21.8746C30.8826 21.8591 30.986 21.8842 31.0691 21.9443C31.1521 22.0044 31.2082 22.0948 31.2253 22.1959C31.2423 22.297 31.2189 22.4008 31.1601 22.4848C31.1013 22.5688 31.0118 22.6263 30.911 22.6449L27.5781 23.2027C27.5573 23.2071 27.5361 23.2097 27.5149 23.2105Z" fill="#3F456B"/>
<path d="M28.0086 26.1552C27.9156 26.1529 27.8264 26.1176 27.7572 26.0555C27.6879 25.9934 27.643 25.9087 27.6307 25.8165C27.6184 25.7243 27.6393 25.6307 27.6899 25.5526C27.7404 25.4744 27.8171 25.4169 27.9062 25.3903L31.1875 24.4919C31.237 24.4783 31.2887 24.4747 31.3396 24.4811C31.3905 24.4875 31.4397 24.5039 31.4842 24.5294C31.5288 24.5548 31.5679 24.5888 31.5994 24.6293C31.6309 24.6699 31.654 24.7162 31.6676 24.7657C31.6811 24.8152 31.6848 24.8669 31.6783 24.9178C31.6719 24.9687 31.6555 25.0179 31.6301 25.0625C31.6046 25.107 31.5707 25.1462 31.5301 25.1776C31.4896 25.2091 31.4432 25.2322 31.3937 25.2458L28.1125 26.1434C28.0786 26.1523 28.0436 26.1563 28.0086 26.1552Z" fill="#3F456B"/>
<path d="M28.9992 29.1575C28.9089 29.1583 28.8211 29.1277 28.7508 29.071C28.6805 29.0143 28.632 28.935 28.6136 28.8466C28.5952 28.7582 28.608 28.6661 28.6498 28.5861C28.6916 28.506 28.7599 28.4429 28.843 28.4075L32.0164 27.0552C32.0636 27.0351 32.1143 27.0245 32.1656 27.0239C32.2169 27.0234 32.2678 27.033 32.3154 27.0522C32.363 27.0713 32.4063 27.0997 32.443 27.1356C32.4796 27.1715 32.5088 27.2142 32.5289 27.2614C32.549 27.3086 32.5596 27.3593 32.5601 27.4106C32.5607 27.4619 32.5511 27.5128 32.5319 27.5604C32.5128 27.608 32.4844 27.6513 32.4485 27.688C32.4126 27.7246 32.3699 27.7538 32.3227 27.7739L29.1492 29.1263C29.1018 29.1465 29.0508 29.1571 28.9992 29.1575Z" fill="#3F456B"/>
<path d="M30.3602 32.2396C30.2761 32.24 30.1941 32.2132 30.1265 32.1632C30.0588 32.1133 30.0091 32.0428 29.9847 31.9623C29.9603 31.8818 29.9625 31.7956 29.991 31.7165C30.0196 31.6374 30.0729 31.5696 30.143 31.5232L33.0961 29.5576C33.1824 29.5002 33.288 29.4794 33.3896 29.4999C33.4912 29.5203 33.5805 29.5803 33.6379 29.6666C33.6953 29.7529 33.7161 29.8584 33.6956 29.96C33.6752 30.0616 33.6152 30.151 33.5289 30.2084L30.5758 32.174C30.5121 32.2168 30.437 32.2397 30.3602 32.2396Z" fill="#3F456B"/>
</svg>
